<svg height="199" viewBox="0 0 286 199" fill="none" xmlns="http://www.w3.org/2000/svg"><path d="m238.963 30.6-22.062.214c-1.037-5.103-4.522-18.494-1.384-22.146a5.367 5.367 0 0 1 5.657-4.804c3.42-5.35 9.116-4.547 12.965-1.205 3.875 1.336 5.335 3.71 4.824 6.932 2.87 2.51 3.399 5.565 2.111 9.042l-2.111 11.966Z" fill="#2F2E41"></path><path d="m236.839 44.185-15.917-2.203-3.184-4.65c4.386-2.909 5.937-6.97 3.918-12.485l11.02-.245c-.516 4.911 1.109 8.714 5.633 11.015l-1.47 8.568Z" fill="#FFB9B9"></path><path d="m217.159 187.704-.609 8.318a2.646 2.646 0 0 0 2.802 2.836l4.274-.259a1.35 1.35 0 0 0 1.229-1.676l-2.373-9.485-5.323.266ZM230.995 187.438l-2.372 9.485a1.357 1.357 0 0 0 .221 1.126 1.35 1.35 0 0 0 1.008.55l4.274.259a2.646 2.646 0 0 0 2.645-1.728c.131-.354.184-.732.156-1.109l-.608-8.317-5.324-.266Z" fill="#E6E6E6"></path><path d="m236.595 188.859-5.768-.579-5.742-61.354-2.17 61.156-5.666-.203-9.551-84.698h36.488l-7.591 85.678Z" fill="currentColor"></path><path d="M227.779 28.763c6.086 0 11.02-4.932 11.02-11.016 0-6.083-4.934-11.015-11.02-11.015-6.086 0-11.02 4.932-11.02 11.015 0 6.084 4.934 11.016 11.02 11.016Z" fill="#FFB9B9"></path><path d="m249.574 105.139-44.57.49c6.615-25.17 10.571-48.552 3.674-64.626l11.02-5.386c5.313 5.54 11.231 4.97 17.631-.49l10.53 2.694c-1.803 21.078-.995 43.653 1.715 67.318Z" fill="currentColor"></path><path d="m192.76 79.19 27.672 11.017 6.187 1.819a2.143 2.143 0 0 0 2.68-1.534 2.137 2.137 0 0 0-1.218-2.479l-6.424-1.968-19.346-11.26 4.04-10.649-8.448-4.529-5.143 19.584Z" fill="#FFB9B9"></path><path d="M193.005 59.118c5.265 2.053 9.452 5.557 12.734 10.281l10.285-14.932-7.346-13.464-15.673 18.115Z" fill="currentColor"></path><path d="M240.199 15.962c-4.473-1.152-8.87-1.31-13.145.151-2.723 1.319-5.993 1.197-9.63.11V5.234l19.633.524 3.142 10.205Z" fill="#2F2E41"></path><path d="M220.34 66.356a3.267 3.267 0 0 0-3.263 3.263l1.288 26.957a3.265 3.265 0 0 0 3.264 3.263h14.729a3.27 3.27 0 0 0 3.264-3.263l1.288-26.957a3.265 3.265 0 0 0-3.264-3.263H220.34Z" fill="#3F3D56"></path><path d="m262.131 77.154-24.12 9.6-1.819.725a2.99 2.99 0 0 1-.177.061l-6.097 1.794c-.78.228-1.859-.821-2.49-1.546a1.957 1.957 0 0 1-.051-2.553 1.798 1.798 0 0 1 1.082-.621l6.09-1.198c.219-.043.429-.12.622-.231l2.84-1.655 14.748-8.584a2 2 0 0 0 .867-2.44l-2.815-7.421a1.997 1.997 0 0 1 .924-2.473l4.664-2.498a1.998 1.998 0 0 1 2.879 1.256l4.048 15.415a2 2 0 0 1-1.195 2.37Z" fill="#FFB9B9"></path><path d="M263.532 56.425c-5.265 2.053-9.452 5.557-12.734 10.281l-10.285-14.932 7.346-13.953 15.673 18.604Z" fill="currentColor"></path><path d="M235.113 27.552c-4.821 2.005-9.876 1.923-15.138 0 1.531-2.612-.757-4.658-1.932-7.295l19.646-.584c-1.502 2.291-3.719 4.998-2.576 7.88Z" fill="#fff"></path><path d="m237.481 20.109-.228-.228.322-.322 1.924-2.244.245.21-1.933 2.253-.33.331ZM216.697 18.745l-.207.247 1.933 1.61.206-.248-1.932-1.61ZM238.036 22.002l-3.382 5.312.272.172 3.382-5.311-.272-.173ZM217.052 22.001l-.272.173 3.382 5.313.271-.173L217.052 22ZM238.655 81.074v5.833l-2.031.809a3.107 3.107 0 0 1-.198.068l-6.805 2.001c-.87.256-2.075-.916-2.779-1.725a2.183 2.183 0 0 1-.058-2.85 2.013 2.013 0 0 1 1.208-.694l6.798-1.336a2.27 2.27 0 0 0 .694-.259l3.171-1.847Z" fill="#fff"></path><path d="M241.599 60.27h-1.164c0-16.455-3.389-27.923-6.692-27.923l-.291-1.163c2.962 0 4.851 4.773 5.913 8.776 1.441 5.428 2.234 12.641 2.234 20.31ZM214.83 56.198h-1.164c0-15.07 3.413-24.432 8.438-24.432l-.291 1.163c-3.476 0-6.983 7.195-6.983 23.269Z" fill="#3F3D56"></path><path d="M241.017 63.47a2.91 2.91 0 1 0 .001-5.82 2.91 2.91 0 0 0-.001 5.82ZM210.175 63.178h-1.164c0-4.17 2.349-7.562 5.237-7.562v1.163c-2.246 0-4.073 2.871-4.073 6.4Z" fill="#3F3D56"></path><path d="M219.485 63.178h-1.163c0-3.528-1.828-6.398-4.074-6.398v-1.164c2.888 0 5.237 3.392 5.237 7.562Z" fill="#3F3D56"></path><path d="M218.904 64.633a1.163 1.163 0 1 0 0-2.327 1.163 1.163 0 0 0 0 2.327ZM209.593 64.633a1.163 1.163 0 1 0 0-2.327 1.163 1.163 0 0 0 0 2.327Z" fill="#3F3D56"></path><path d="m69.332 24.37-20.44 3.461a2.07 2.07 0 0 1-2.342-1.485c-1.476-5.328-4.564-12.279-1.566-15.768a5.733 5.733 0 0 1 6.04-5.13C54.676-.265 60.758.592 64.87 4.161c4.137 1.427 5.697 3.962 5.151 7.402 1.788 1.564 2.725 3.326 2.922 5.26a7.59 7.59 0 0 1-2.078 5.907l-1.532 1.64Z" fill="#2F2E41"></path><path d="m66.155 40.457-15.846-.932c1.553-3.563 2.173-6.994 1.553-10.25H63.67c-.027 2.5 1.218 6.824 2.486 11.182Z" fill="#9F616A"></path><path d="m47.08 186.825-.65 8.882a2.83 2.83 0 0 0 2.992 3.028l4.564-.276a1.438 1.438 0 0 0 1.076-.587 1.442 1.442 0 0 0 .236-1.202l-2.533-10.129-5.685.284ZM61.855 186.541l-2.533 10.129a1.439 1.439 0 0 0 .709 1.615c.186.102.392.161.603.174l4.564.276a2.82 2.82 0 0 0 2.184-.835 2.831 2.831 0 0 0 .808-2.193l-.65-8.882-5.685-.284Z" fill="#E6E6E6"></path><path d="m67.835 188.058-6.159-.618-6.132-65.517-2.317 65.306-6.05-.217-10.199-90.445h38.963l-8.106 91.491Z" fill="currentColor"></path><path d="M58.077 33.046c6.499 0 11.767-5.266 11.767-11.763 0-6.496-5.268-11.763-11.767-11.763S46.31 14.787 46.31 21.283c0 6.497 5.268 11.763 11.767 11.763Z" fill="#9F616A"></path><path d="M71.34 15.664c-4.776-.832-9.472-.946-14.037.109-2.907.951-6.4.864-10.283.08V7.92l20.965.378 3.355 7.366Z" fill="#2F2E41"></path><path d="M65.908 30.722c-5.148 2.14-10.546 2.053-16.164 0 1.635-2.79-.809-4.975-2.064-7.79l20.98-.624c-1.605 2.446-3.972 5.337-2.752 8.414Z" fill="#fff"></path><path d="m46.236 21.325-.206.247 2.063 1.72.206-.248-2.063-1.72ZM69.04 24.8l-3.612 5.672.272.173 3.612-5.672-.272-.173ZM46.612 24.8l-.272.173 3.611 5.673.272-.173-3.61-5.673Z" fill="#fff"></path><path d="m35.705 74.933-9.01-5.59 7.684-22.498a10.614 10.614 0 0 1 4.641-5.51l2.589-1.499.225 22.696-6.129 12.4Z" fill="currentColor"></path><path d="M74.653 85.86 73.32 74.444c-.071-6.024.954-11.849 3.399-17.216l1.243-16.772-13.672-5.59c-.042.278-.077.556-.117.835l-6.407 3.202-6.25-1.42.035-1.996-12.428 5.59c4.11 19.101 1.868 38.936-5.2 62.365l16.374 4.476.136-7.859 14.592-1.042c.15 2.55.271 5.054.341 7.503 8.234 3.03 8.517 2.98 16.019-1.359-2.988-6.279-5.353-12.813-6.732-19.303Z" fill="currentColor"></path><path d="m95.672 72.137-8.39-2.795-13.418-15.615 4.097-13.27 18.643 26.09-.932 5.59Z" fill="currentColor"></path><path d="M69.38 84.227a2.333 2.333 0 0 0 2.788 1.757l7.121-1.612-1.029-4.544-7.121 1.612a2.33 2.33 0 0 0-1.758 2.787Z" fill="#E6E6E6"></path><path d="m75.787 78.97 4.039 7.455c6.794-1.894 12.682-7.866 18.332-14.909l-1.554-4.97-9.632 2.486-11.185 9.939Z" fill="currentColor"></path><path d="m23.122 55.588 7.754 1.384L48.6 82.165l-9.416-2.215-16.062-24.36Z" fill="#E6E6E6"></path><path d="M21.746 55.28a.66.66 0 0 0-.54 1.021l16.566 25.127c.093.141.236.24.4.28l7.708 1.812a.658.658 0 0 0 .689-1.02l-18.19-25.853a.657.657 0 0 0-.423-.27l-6.085-1.086a.71.71 0 0 0-.125-.011Z" fill="#3F3D56"></path><path d="m32.08 73.246.461 4.636 7.266-.721a2.33 2.33 0 1 0-.46-4.636l-7.266.72Z" fill="#E6E6E6"></path><path d="M25.763 72.709a5.99 5.99 0 0 0 5.986 5.95h1.195l.87-7.245-7.202-2.591-.85 3.886Z" fill="currentColor"></path><path d="m68.086 23.11-.228-.228.344-.344 2.055-2.397.244.209-2.063 2.406-.352.354Z" fill="#fff"></path><path d="M109.183 198.034h67.635v-82.006c0-4.342-4.279-7.875-9.538-7.875h-48.559c-5.26 0-9.538 3.533-9.538 7.875v82.006Z" fill="#E6E6E6"></path><path d="M114.335 194.643h57.329v-69.51c0-3.681-3.626-6.675-8.084-6.675h-41.16c-4.458 0-8.085 2.994-8.085 6.675v69.51Z" fill="#fff"></path><path d="M108.671 101.771c-1.671 0-3.031 1.123-3.031 2.503v7.226c0 1.38 1.36 2.503 3.031 2.503h68.658c1.671 0 3.031-1.123 3.031-2.503v-7.226c0-1.38-1.36-2.503-3.031-2.503h-68.658ZM122.768 185.73a2.97 2.97 0 0 0-2.962 2.961 2.969 2.969 0 0 0 2.962 2.961h5.544v-5.922h-5.544Z" fill="#3F3D56"></path><path d="M133.401 185.73h-5.393v5.922h5.393a2.974 2.974 0 0 0 2.962-2.961 2.971 2.971 0 0 0-2.962-2.961Z" fill="currentColor"></path><path opacity="0.2" d="M135.333 186.455a2.943 2.943 0 0 1-.144 4.023 2.97 2.97 0 0 1-2.092.87h-5.089v.304h5.393a2.974 2.974 0 0 0 2.962-2.961 2.951 2.951 0 0 0-1.03-2.236Z" fill="#000"></path><path d="M147.787 141.131a2.968 2.968 0 0 0-4.187-.123 2.967 2.967 0 0 0-.124 4.185l3.803 4.033 4.311-4.062-3.803-4.033Z" fill="#3F3D56"></path><path d="m155.08 148.866-3.699-3.923-4.311 4.062 3.699 3.923a2.97 2.97 0 0 0 4.187.123 2.971 2.971 0 0 0 .124-4.185Z" fill="currentColor"></path><path opacity="0.2" d="M155.878 150.769a2.946 2.946 0 0 1-.909 1.853 2.975 2.975 0 0 1-4.187-.124l-3.491-3.701-.221.208 3.699 3.923a2.97 2.97 0 0 0 4.187.123 2.952 2.952 0 0 0 .922-2.282Z" fill="#000"></path><path d="M132.005 150.468a2.973 2.973 0 0 0-4.187-.124 2.972 2.972 0 0 0-.124 4.186l3.803 4.033 4.311-4.062-3.803-4.033Z" fill="#3F3D56"></path><path d="m139.299 158.202-3.699-3.922-4.311 4.062 3.699 3.922a2.97 2.97 0 0 0 4.187.124 2.97 2.97 0 0 0 .124-4.186Z" fill="currentColor"></path><path opacity="0.2" d="M140.096 160.105a2.942 2.942 0 0 1-3.027 2.655 2.97 2.97 0 0 1-2.068-.925l-3.491-3.702-.221.209 3.699 3.922a2.97 2.97 0 0 0 4.187.124 2.952 2.952 0 0 0 .921-2.283Z" fill="#000"></path><path d="M147.787 159.161a2.969 2.969 0 0 0-4.187-.124 2.967 2.967 0 0 0-.124 4.186l3.803 4.032 4.311-4.062-3.803-4.032Z" fill="#3F3D56"></path><path d="m155.08 166.895-3.699-3.922-4.311 4.061 3.699 3.923a2.973 2.973 0 0 0 4.187.123 2.97 2.97 0 0 0 .124-4.185Z" fill="currentColor"></path><path opacity="0.2" d="M155.878 168.798a2.946 2.946 0 0 1-3.028 2.655 2.975 2.975 0 0 1-2.068-.925l-3.491-3.702-.221.208 3.699 3.923a2.973 2.973 0 0 0 4.187.123 2.939 2.939 0 0 0 .922-2.282Z" fill="#000"></path><path d="M157.414 177.662a2.97 2.97 0 0 0 .073-4.187 2.972 2.972 0 0 0-4.189-.072l-3.987 3.85 4.115 4.259 3.988-3.85Z" fill="#3F3D56"></path><path d="m149.766 185.046 3.879-3.745-4.116-4.259-3.878 3.745a2.972 2.972 0 0 0-.073 4.187 2.97 2.97 0 0 0 4.188.072Z" fill="currentColor"></path><path opacity="0.2" d="M147.872 185.867a2.948 2.948 0 0 1-1.865-.886 2.97 2.97 0 0 1 .073-4.187l3.66-3.533-.211-.219-3.878 3.745a2.972 2.972 0 0 0-.073 4.187 2.96 2.96 0 0 0 2.294.893Z" fill="#000"></path><path d="M136.157 168.326a2.967 2.967 0 0 0 .073-4.187 2.973 2.973 0 0 0-4.188-.073l-3.988 3.851 4.115 4.259 3.988-3.85Z" fill="#3F3D56"></path><path d="m128.509 175.71 3.879-3.745-4.116-4.259-3.878 3.744a2.967 2.967 0 0 0-.073 4.187 2.971 2.971 0 0 0 4.188.073Z" fill="currentColor"></path><path opacity="0.2" d="M126.615 176.53a2.938 2.938 0 0 1-1.864-.886 2.967 2.967 0 0 1 .072-4.186l3.66-3.534-.211-.218-3.878 3.744a2.967 2.967 0 0 0-.073 4.187 2.957 2.957 0 0 0 2.294.893Z" fill="#000"></path><path d="M166.432 157.057a2.965 2.965 0 0 0 .073-4.186 2.969 2.969 0 0 0-4.189-.073l-3.987 3.85 4.115 4.26 3.988-3.851Z" fill="#3F3D56"></path><path d="m158.784 164.441 3.879-3.744-4.116-4.26-3.878 3.745a2.967 2.967 0 0 0-.073 4.187 2.971 2.971 0 0 0 4.188.072Z" fill="currentColor"></path><path opacity="0.2" d="M156.89 165.262a2.943 2.943 0 0 1-2.692-2.994 2.971 2.971 0 0 1 .9-2.079l3.66-3.533-.211-.219-3.878 3.745a2.967 2.967 0 0 0-.073 4.187 2.95 2.95 0 0 0 2.294.893Z" fill="#000"></path><path d="M159.703 180.409a2.97 2.97 0 0 0-4.187-.123 2.966 2.966 0 0 0-.124 4.185l3.803 4.033 4.311-4.062-3.803-4.033Z" fill="#3F3D56"></path><path d="m166.996 188.144-3.699-3.923-4.31 4.062 3.699 3.923a2.975 2.975 0 0 0 4.187.123 2.97 2.97 0 0 0 .123-4.185Z" fill="currentColor"></path><path opacity="0.2" d="M167.794 190.047a2.941 2.941 0 0 1-3.028 2.654 2.969 2.969 0 0 1-2.068-.925l-3.49-3.701-.221.208 3.699 3.923a2.975 2.975 0 0 0 4.187.123 2.968 2.968 0 0 0 .921-2.282Z" fill="#000"></path><path d="M138.769 180.087a2.972 2.972 0 0 0-4.188-.123 2.97 2.97 0 0 0-.123 4.185l3.803 4.033 4.311-4.062-3.803-4.033Z" fill="#3F3D56"></path><path d="m146.062 187.822-3.699-3.923-4.311 4.062 3.699 3.923a2.97 2.97 0 0 0 4.187.123 2.966 2.966 0 0 0 .124-4.185Z" fill="currentColor"></path><path opacity="0.2" d="M146.86 189.725a2.951 2.951 0 0 1-.909 1.853 2.975 2.975 0 0 1-4.187-.124l-3.491-3.701-.221.208 3.699 3.923a2.97 2.97 0 0 0 4.187.123 2.957 2.957 0 0 0 .922-2.282Z" fill="#000"></path><path d="M144.661 169.465c0 .985-.34 1.939-.963 2.701a4.266 4.266 0 0 1-4.163 1.484 4.272 4.272 0 0 1 0-8.37 4.266 4.266 0 0 1 4.163 1.484 4.27 4.27 0 0 1 .963 2.701Z" fill="currentColor"></path><path opacity="0.2" d="M141.244 165.28v8.37a4.313 4.313 0 0 1-1.709 0v-8.37a4.35 4.35 0 0 1 1.709 0Z" fill="#000"></path><path d="M146.594 152.402a4.27 4.27 0 0 1-5.126 4.184 4.276 4.276 0 0 1-3.418-4.184 4.272 4.272 0 0 1 8.544 0Z" fill="currentColor"></path><path opacity="0.2" d="M143.176 148.217v8.369a4.308 4.308 0 0 1-1.708 0v-8.369a4.308 4.308 0 0 1 1.708 0Z" fill="#000"></path><path d="M146.594 176.87a4.268 4.268 0 0 1-3.418 4.185 4.272 4.272 0 0 1-1.708-8.37 4.272 4.272 0 0 1 5.126 4.185Z" fill="currentColor"></path><path opacity="0.2" d="M143.176 172.685v8.37a4.308 4.308 0 0 1-1.708 0v-8.37a4.345 4.345 0 0 1 1.708 0Z" fill="#000"></path><path d="M157.222 188.782a4.271 4.271 0 1 1-8.542.001 4.271 4.271 0 0 1 8.542-.001Z" fill="currentColor"></path><path opacity="0.2" d="M153.805 184.598v8.369a4.313 4.313 0 0 1-1.709 0v-8.369a4.313 4.313 0 0 1 1.709 0Z" fill="#000"></path><path d="M166.611 166.865a4.274 4.274 0 0 1-.543 6.594 4.279 4.279 0 0 1-5.386-.445 4.27 4.27 0 0 1 3.315-7.331 4.274 4.274 0 0 1 2.614 1.182Z" fill="currentColor"></path><path opacity="0.2" d="m161.225 166.421 6.029 5.808a4.33 4.33 0 0 1-1.186 1.23l-6.028-5.809a4.309 4.309 0 0 1 1.185-1.229Z" fill="#000"></path><path d="M167.899 176.202a4.27 4.27 0 0 1 .643 5.363 4.273 4.273 0 0 1-7.214-4.578 4.313 4.313 0 0 1 1.185-1.23 4.274 4.274 0 0 1 5.386.445Z" fill="currentColor"></path><path opacity="0.2" d="m162.513 175.757 6.029 5.808a4.33 4.33 0 0 1-1.186 1.23l-6.028-5.808a4.313 4.313 0 0 1 1.185-1.23Z" fill="#000"></path><path d="M129.572 178.455a4.265 4.265 0 0 1 .643 5.364 4.277 4.277 0 0 1-6.571.785 4.27 4.27 0 0 1-.643-5.363 4.27 4.27 0 0 1 6.571-.786Z" fill="currentColor"></path><path opacity="0.2" d="m124.187 178.011 6.028 5.808a4.303 4.303 0 0 1-1.186 1.23l-6.028-5.808a4.303 4.303 0 0 1 1.186-1.23ZM115.785 101.771h-1.611v11.912h1.611v-11.912ZM125.125 101.771h-1.61v11.912h1.61v-11.912ZM134.465 101.771h-1.611v11.912h1.611v-11.912ZM143.805 101.771h-1.61v11.912h1.61v-11.912ZM153.146 101.771h-1.611v11.912h1.611v-11.912ZM162.485 101.771h-1.61v11.912h1.61v-11.912ZM171.825 101.771h-1.61v11.912h1.61v-11.912Z" fill="#000"></path></svg>